<svg width="428" height="273" viewBox="0 0 428 273" fill="none" xmlns="http://www.w3.org/2000/svg">
<rect x="-29" y="-34.7028" width="487" height="307.703" rx="8" fill="#2D3250"/>
<ellipse cx="95" cy="54.7953" rx="183" ry="136.378" fill="#D9D9D9"/>
<ellipse cx="137" cy="56.5" rx="263" ry="216.5" fill="#424769"/>
<ellipse cx="95" cy="54.7953" rx="183" ry="136.378" fill="#7077A1"/>
<rect y="233.791" width="141" height="39.2087" fill="#424769"/>
<path d="M47.6078 148.863C47.6078 150.387 47.2387 151.711 46.5004 152.836C45.7621 153.961 44.684 154.828 43.266 155.438C41.8598 156.047 40.1488 156.352 38.1332 156.352C37.2426 156.352 36.3695 156.293 35.5141 156.176C34.6703 156.059 33.8559 155.889 33.0707 155.666C32.2973 155.432 31.559 155.145 30.8559 154.805V149.742C32.0746 150.281 33.3402 150.768 34.6527 151.201C35.9652 151.635 37.266 151.852 38.5551 151.852C39.4457 151.852 40.1606 151.734 40.6996 151.5C41.2504 151.266 41.6488 150.943 41.8949 150.533C42.141 150.123 42.2641 149.654 42.2641 149.127C42.2641 148.482 42.0473 147.932 41.6137 147.475C41.1801 147.018 40.5824 146.59 39.8207 146.191C39.0707 145.793 38.2211 145.365 37.2719 144.908C36.6742 144.627 36.0238 144.287 35.3207 143.889C34.6176 143.479 33.9496 142.98 33.3168 142.395C32.684 141.809 32.1625 141.1 31.7523 140.268C31.3539 139.424 31.1547 138.416 31.1547 137.244C31.1547 135.709 31.5063 134.396 32.2094 133.307C32.9125 132.217 33.9145 131.385 35.2152 130.811C36.5277 130.225 38.0746 129.932 39.8559 129.932C41.1918 129.932 42.4633 130.09 43.6703 130.406C44.8891 130.711 46.1606 131.156 47.4848 131.742L45.727 135.979C44.5434 135.498 43.4828 135.129 42.5453 134.871C41.6078 134.602 40.6527 134.467 39.6801 134.467C39.0004 134.467 38.4203 134.578 37.9398 134.801C37.4594 135.012 37.0961 135.316 36.85 135.715C36.6039 136.102 36.4809 136.553 36.4809 137.068C36.4809 137.678 36.6566 138.193 37.0082 138.615C37.3715 139.025 37.9106 139.424 38.6254 139.811C39.352 140.197 40.2543 140.648 41.3324 141.164C42.6449 141.785 43.7641 142.436 44.6898 143.115C45.6273 143.783 46.3481 144.574 46.852 145.488C47.3559 146.391 47.6078 147.516 47.6078 148.863ZM57.6555 136.348V156H52.2941V136.348H57.6555ZM54.9836 128.648C55.7805 128.648 56.466 128.836 57.0402 129.211C57.6145 129.574 57.9016 130.26 57.9016 131.268C57.9016 132.264 57.6145 132.955 57.0402 133.342C56.466 133.717 55.7805 133.904 54.9836 133.904C54.175 133.904 53.4836 133.717 52.9094 133.342C52.3469 132.955 52.0656 132.264 52.0656 131.268C52.0656 130.26 52.3469 129.574 52.9094 129.211C53.4836 128.836 54.175 128.648 54.9836 128.648ZM69.4961 164.648C66.7539 164.648 64.6563 164.168 63.2031 163.207C61.7617 162.258 61.041 160.922 61.041 159.199C61.041 158.016 61.4102 157.025 62.1484 156.229C62.8867 155.432 63.9707 154.863 65.4004 154.523C64.8496 154.289 64.3691 153.908 63.959 153.381C63.5488 152.842 63.3438 152.273 63.3438 151.676C63.3438 150.926 63.5606 150.305 63.9941 149.812C64.4277 149.309 65.0547 148.816 65.875 148.336C64.8438 147.891 64.0234 147.176 63.4141 146.191C62.8164 145.207 62.5176 144.047 62.5176 142.711C62.5176 141.281 62.8281 140.068 63.4492 139.072C64.082 138.064 64.9961 137.297 66.1914 136.77C67.3984 136.242 68.8633 135.979 70.5859 135.979C70.9492 135.979 71.3711 136.002 71.8516 136.049C72.332 136.096 72.7715 136.148 73.1699 136.207C73.5801 136.266 73.8555 136.312 73.9961 136.348H80.8516V139.072L77.7754 139.863C78.0566 140.297 78.2676 140.76 78.4082 141.252C78.5488 141.744 78.6191 142.266 78.6191 142.816C78.6191 144.926 77.8809 146.572 76.4043 147.756C74.9395 148.928 72.9004 149.514 70.2871 149.514C69.666 149.479 69.0801 149.432 68.5293 149.373C68.2598 149.584 68.0547 149.807 67.9141 150.041C67.7734 150.275 67.7031 150.521 67.7031 150.779C67.7031 151.037 67.8086 151.254 68.0195 151.43C68.2422 151.594 68.5703 151.723 69.0039 151.816C69.4492 151.898 70 151.939 70.6563 151.939H73.9961C76.1523 151.939 77.793 152.402 78.918 153.328C80.0547 154.254 80.6231 155.613 80.6231 157.406C80.6231 159.703 79.6621 161.484 77.7402 162.75C75.8301 164.016 73.082 164.648 69.4961 164.648ZM69.7246 161.15C71.002 161.15 72.0977 161.027 73.0117 160.781C73.9375 160.547 74.6465 160.207 75.1387 159.762C75.6309 159.328 75.877 158.807 75.877 158.197C75.877 157.705 75.7305 157.312 75.4375 157.02C75.1563 156.738 74.7227 156.539 74.1367 156.422C73.5625 156.305 72.8242 156.246 71.9219 156.246H69.1445C68.4883 156.246 67.8965 156.352 67.3691 156.562C66.8535 156.773 66.4434 157.066 66.1387 157.441C65.834 157.828 65.6816 158.273 65.6816 158.777C65.6816 159.516 66.0332 160.096 66.7363 160.518C67.4512 160.939 68.4473 161.15 69.7246 161.15ZM70.5859 146.244C71.5938 146.244 72.332 145.934 72.8008 145.312C73.2695 144.691 73.5039 143.848 73.5039 142.781C73.5039 141.598 73.2578 140.713 72.7656 140.127C72.2852 139.529 71.5586 139.23 70.5859 139.23C69.6016 139.23 68.8633 139.529 68.3711 140.127C67.8789 140.713 67.6328 141.598 67.6328 142.781C67.6328 143.848 67.8731 144.691 68.3535 145.312C68.8457 145.934 69.5898 146.244 70.5859 146.244ZM95.7156 135.979C97.8133 135.979 99.5008 136.553 100.778 137.701C102.055 138.838 102.694 140.666 102.694 143.186V156H97.3328V144.521C97.3328 143.115 97.075 142.055 96.5594 141.34C96.0555 140.625 95.2586 140.268 94.1688 140.268C92.5281 140.268 91.409 140.824 90.8113 141.938C90.2137 143.051 89.9148 144.656 89.9148 146.754V156H84.5535V136.348H88.6492L89.3699 138.861H89.6688C90.0906 138.182 90.6121 137.631 91.2332 137.209C91.866 136.787 92.5633 136.477 93.325 136.277C94.0984 136.078 94.8953 135.979 95.7156 135.979ZM123.827 136.348V156H118.465V136.348H123.827ZM121.155 128.648C121.952 128.648 122.637 128.836 123.211 129.211C123.786 129.574 124.073 130.26 124.073 131.268C124.073 132.264 123.786 132.955 123.211 133.342C122.637 133.717 121.952 133.904 121.155 133.904C120.346 133.904 119.655 133.717 119.08 133.342C118.518 132.955 118.237 132.264 118.237 131.268C118.237 130.26 118.518 129.574 119.08 129.211C119.655 128.836 120.346 128.648 121.155 128.648ZM141.081 135.979C143.179 135.979 144.866 136.553 146.144 137.701C147.421 138.838 148.06 140.666 148.06 143.186V156H142.698V144.521C142.698 143.115 142.441 142.055 141.925 141.34C141.421 140.625 140.624 140.268 139.534 140.268C137.894 140.268 136.775 140.824 136.177 141.938C135.579 143.051 135.28 144.656 135.28 146.754V156H129.919V136.348H134.015L134.736 138.861H135.034C135.456 138.182 135.978 137.631 136.599 137.209C137.232 136.787 137.929 136.477 138.691 136.277C139.464 136.078 140.261 135.979 141.081 135.979ZM172.11 152.08C172.696 152.08 173.264 152.021 173.815 151.904C174.378 151.787 174.934 151.641 175.485 151.465V155.455C174.911 155.713 174.196 155.924 173.341 156.088C172.497 156.264 171.571 156.352 170.563 156.352C169.391 156.352 168.337 156.164 167.399 155.789C166.473 155.402 165.741 154.74 165.202 153.803C164.675 152.854 164.411 151.535 164.411 149.848V140.373H161.845V138.105L164.798 136.312L166.345 132.164H169.772V136.348H175.274V140.373H169.772V149.848C169.772 150.598 169.983 151.16 170.405 151.535C170.839 151.898 171.407 152.08 172.11 152.08ZM197.785 146.139C197.785 147.779 197.562 149.232 197.117 150.498C196.683 151.764 196.045 152.836 195.201 153.715C194.369 154.582 193.361 155.238 192.177 155.684C191.005 156.129 189.681 156.352 188.205 156.352C186.822 156.352 185.55 156.129 184.39 155.684C183.242 155.238 182.24 154.582 181.384 153.715C180.541 152.836 179.884 151.764 179.416 150.498C178.959 149.232 178.73 147.779 178.73 146.139C178.73 143.959 179.117 142.113 179.89 140.602C180.664 139.09 181.765 137.941 183.195 137.156C184.625 136.371 186.33 135.979 188.31 135.979C190.15 135.979 191.779 136.371 193.197 137.156C194.627 137.941 195.746 139.09 196.554 140.602C197.375 142.113 197.785 143.959 197.785 146.139ZM184.197 146.139C184.197 147.428 184.338 148.512 184.619 149.391C184.9 150.27 185.339 150.932 185.937 151.377C186.535 151.822 187.314 152.045 188.275 152.045C189.224 152.045 189.992 151.822 190.578 151.377C191.175 150.932 191.609 150.27 191.879 149.391C192.16 148.512 192.3 147.428 192.3 146.139C192.3 144.838 192.16 143.76 191.879 142.904C191.609 142.037 191.175 141.387 190.578 140.953C189.98 140.52 189.201 140.303 188.24 140.303C186.822 140.303 185.791 140.789 185.146 141.762C184.513 142.734 184.197 144.193 184.197 146.139ZM209.654 136.348H215.525L219.234 147.404C219.351 147.756 219.45 148.113 219.532 148.477C219.614 148.84 219.685 149.215 219.743 149.602C219.802 149.988 219.849 150.393 219.884 150.814H219.989C220.06 150.182 220.154 149.59 220.271 149.039C220.4 148.488 220.558 147.943 220.745 147.404L224.384 136.348H230.132L221.818 158.514C221.314 159.873 220.657 161.004 219.849 161.906C219.04 162.82 218.109 163.506 217.054 163.963C216.011 164.42 214.863 164.648 213.609 164.648C212.999 164.648 212.472 164.613 212.027 164.543C211.581 164.484 211.2 164.42 210.884 164.35V160.096C211.13 160.154 211.441 160.207 211.816 160.254C212.191 160.301 212.583 160.324 212.993 160.324C213.743 160.324 214.388 160.166 214.927 159.85C215.466 159.533 215.917 159.105 216.28 158.566C216.644 158.039 216.931 157.459 217.142 156.826L217.458 155.859L209.654 136.348ZM251.271 146.139C251.271 147.779 251.049 149.232 250.604 150.498C250.17 151.764 249.531 152.836 248.688 153.715C247.855 154.582 246.848 155.238 245.664 155.684C244.492 156.129 243.168 156.352 241.691 156.352C240.309 156.352 239.037 156.129 237.877 155.684C236.729 155.238 235.727 154.582 234.871 153.715C234.027 152.836 233.371 151.764 232.902 150.498C232.445 149.232 232.217 147.779 232.217 146.139C232.217 143.959 232.604 142.113 233.377 140.602C234.15 139.09 235.252 137.941 236.682 137.156C238.111 136.371 239.816 135.979 241.797 135.979C243.637 135.979 245.266 136.371 246.684 137.156C248.113 137.941 249.232 139.09 250.041 140.602C250.861 142.113 251.271 143.959 251.271 146.139ZM237.684 146.139C237.684 147.428 237.824 148.512 238.105 149.391C238.387 150.27 238.826 150.932 239.424 151.377C240.021 151.822 240.801 152.045 241.762 152.045C242.711 152.045 243.479 151.822 244.064 151.377C244.662 150.932 245.096 150.27 245.365 149.391C245.646 148.512 245.787 147.428 245.787 146.139C245.787 144.838 245.646 143.76 245.365 142.904C245.096 142.037 244.662 141.387 244.064 140.953C243.467 140.52 242.688 140.303 241.727 140.303C240.309 140.303 239.277 140.789 238.633 141.762C238 142.734 237.684 144.193 237.684 146.139ZM274.186 136.348V156H270.073L269.352 153.486H269.071C268.649 154.154 268.122 154.699 267.489 155.121C266.856 155.543 266.159 155.854 265.397 156.053C264.636 156.252 263.845 156.352 263.024 156.352C261.618 156.352 260.393 156.105 259.35 155.613C258.307 155.109 257.493 154.33 256.907 153.275C256.333 152.221 256.046 150.85 256.046 149.162V136.348H261.407V147.826C261.407 149.232 261.659 150.293 262.163 151.008C262.667 151.723 263.47 152.08 264.571 152.08C265.661 152.08 266.516 151.834 267.138 151.342C267.759 150.838 268.192 150.105 268.438 149.145C268.696 148.172 268.825 146.988 268.825 145.594V136.348H274.186ZM291.23 135.979C291.5 135.979 291.81 135.996 292.162 136.031C292.525 136.055 292.818 136.09 293.041 136.137L292.636 141.164C292.461 141.105 292.209 141.064 291.88 141.041C291.564 141.006 291.289 140.988 291.054 140.988C290.363 140.988 289.689 141.076 289.033 141.252C288.388 141.428 287.808 141.715 287.293 142.113C286.777 142.5 286.367 143.016 286.062 143.66C285.769 144.293 285.623 145.072 285.623 145.998V156H280.261V136.348H284.322L285.113 139.652H285.377C285.763 138.984 286.244 138.375 286.818 137.824C287.404 137.262 288.066 136.816 288.804 136.488C289.554 136.148 290.363 135.979 291.23 135.979Z" fill="white"/>
<path d="M48.0348 197.766L46.1715 191.649H36.8023L34.9391 197.766H29.068L38.1383 171.961H44.8004L53.9059 197.766H48.0348ZM44.8707 187.078L43.0074 181.102C42.8902 180.703 42.732 180.193 42.5328 179.572C42.3453 178.94 42.152 178.301 41.9527 177.656C41.7652 177 41.6129 176.432 41.4957 175.951C41.3785 176.432 41.2145 177.029 41.0035 177.744C40.8043 178.447 40.6109 179.115 40.4234 179.748C40.2359 180.381 40.1012 180.832 40.0191 181.102L38.1734 187.078H44.8707ZM65.1664 198.117C63.2211 198.117 61.5629 197.766 60.1918 197.063C58.8207 196.348 57.7777 195.246 57.0629 193.758C56.348 192.27 55.9906 190.365 55.9906 188.045C55.9906 185.643 56.3949 183.686 57.2035 182.174C58.0238 180.651 59.1547 179.531 60.5961 178.817C62.0492 178.102 63.7309 177.744 65.641 177.744C67.0004 177.744 68.1723 177.879 69.1566 178.149C70.1527 178.406 71.0199 178.717 71.7582 179.08L70.1762 183.229C69.3324 182.889 68.5473 182.613 67.8207 182.402C67.0941 182.18 66.3676 182.068 65.641 182.068C64.7035 182.068 63.9242 182.291 63.3031 182.736C62.682 183.17 62.2191 183.826 61.9145 184.705C61.6098 185.584 61.4574 186.686 61.4574 188.01C61.4574 189.311 61.6215 190.389 61.9496 191.244C62.2777 192.1 62.7523 192.738 63.3734 193.16C63.9945 193.57 64.7504 193.776 65.641 193.776C66.7543 193.776 67.7445 193.629 68.6117 193.336C69.4789 193.031 70.3227 192.609 71.143 192.07V196.658C70.3227 197.174 69.4613 197.543 68.559 197.766C67.6684 198 66.5375 198.117 65.1664 198.117ZM84.1438 198.117C82.1984 198.117 80.5402 197.766 79.1691 197.063C77.798 196.348 76.7551 195.246 76.0402 193.758C75.3254 192.27 74.968 190.365 74.968 188.045C74.968 185.643 75.3723 183.686 76.1809 182.174C77.0012 180.651 78.132 179.531 79.5734 178.817C81.0266 178.102 82.7082 177.744 84.6184 177.744C85.9777 177.744 87.1496 177.879 88.134 178.149C89.1301 178.406 89.9973 178.717 90.7355 179.08L89.1535 183.229C88.3098 182.889 87.5246 182.613 86.798 182.402C86.0715 182.18 85.3449 182.068 84.6184 182.068C83.6809 182.068 82.9016 182.291 82.2805 182.736C81.6594 183.17 81.1965 183.826 80.8918 184.705C80.5871 185.584 80.4348 186.686 80.4348 188.01C80.4348 189.311 80.5988 190.389 80.927 191.244C81.2551 192.1 81.7297 192.738 82.3508 193.16C82.9719 193.57 83.7277 193.776 84.6184 193.776C85.7316 193.776 86.7219 193.629 87.5891 193.336C88.4563 193.031 89.3 192.609 90.1203 192.07V196.658C89.3 197.174 88.4387 197.543 87.5363 197.766C86.6457 198 85.5148 198.117 84.1438 198.117ZM113 187.904C113 189.545 112.777 190.998 112.332 192.264C111.898 193.529 111.26 194.602 110.416 195.481C109.584 196.348 108.576 197.004 107.393 197.449C106.221 197.895 104.896 198.117 103.42 198.117C102.037 198.117 100.766 197.895 99.6055 197.449C98.457 197.004 97.4551 196.348 96.5996 195.481C95.7559 194.602 95.0996 193.529 94.6309 192.264C94.1738 190.998 93.9453 189.545 93.9453 187.904C93.9453 185.725 94.332 183.879 95.1055 182.367C95.8789 180.856 96.9805 179.707 98.4102 178.922C99.8398 178.137 101.545 177.744 103.525 177.744C105.365 177.744 106.994 178.137 108.412 178.922C109.842 179.707 110.961 180.856 111.77 182.367C112.59 183.879 113 185.725 113 187.904ZM99.4121 187.904C99.4121 189.193 99.5527 190.277 99.834 191.156C100.115 192.035 100.555 192.697 101.152 193.143C101.75 193.588 102.529 193.811 103.49 193.811C104.439 193.811 105.207 193.588 105.793 193.143C106.391 192.697 106.824 192.035 107.094 191.156C107.375 190.277 107.516 189.193 107.516 187.904C107.516 186.604 107.375 185.526 107.094 184.67C106.824 183.803 106.391 183.152 105.793 182.719C105.195 182.285 104.416 182.068 103.455 182.068C102.037 182.068 101.006 182.555 100.361 183.527C99.7285 184.5 99.4121 185.959 99.4121 187.904ZM135.915 178.113V197.766H131.802L131.081 195.252H130.8C130.378 195.92 129.85 196.465 129.218 196.887C128.585 197.309 127.888 197.619 127.126 197.818C126.364 198.018 125.573 198.117 124.753 198.117C123.346 198.117 122.122 197.871 121.079 197.379C120.036 196.875 119.221 196.096 118.636 195.041C118.061 193.986 117.774 192.615 117.774 190.928V178.113H123.136V189.592C123.136 190.998 123.388 192.059 123.891 192.774C124.395 193.488 125.198 193.846 126.3 193.846C127.389 193.846 128.245 193.6 128.866 193.108C129.487 192.604 129.921 191.871 130.167 190.91C130.425 189.938 130.554 188.754 130.554 187.359V178.113H135.915ZM153.152 177.744C155.25 177.744 156.937 178.318 158.214 179.467C159.492 180.604 160.13 182.432 160.13 184.951V197.766H154.769V186.287C154.769 184.881 154.511 183.82 153.996 183.106C153.492 182.391 152.695 182.033 151.605 182.033C149.964 182.033 148.845 182.59 148.248 183.703C147.65 184.817 147.351 186.422 147.351 188.52V197.766H141.99V178.113H146.086L146.806 180.627H147.105C147.527 179.947 148.048 179.397 148.67 178.975C149.302 178.553 150 178.242 150.761 178.043C151.535 177.844 152.332 177.744 153.152 177.744ZM174.379 193.846C174.965 193.846 175.534 193.787 176.084 193.67C176.647 193.553 177.204 193.406 177.754 193.231V197.221C177.18 197.479 176.465 197.69 175.61 197.854C174.766 198.029 173.84 198.117 172.832 198.117C171.661 198.117 170.606 197.93 169.668 197.555C168.743 197.168 168.01 196.506 167.471 195.568C166.944 194.619 166.68 193.301 166.68 191.613V182.139H164.114V179.871L167.067 178.078L168.614 173.93H172.041V178.113H177.543V182.139H172.041V191.613C172.041 192.363 172.252 192.926 172.674 193.301C173.108 193.664 173.676 193.846 174.379 193.846Z" fill="white"/>
<path d="M36.0068 228.599C36.0068 229.191 35.8587 229.697 35.5625 230.116C35.2708 230.531 34.8607 230.848 34.332 231.066C33.8034 231.285 33.1813 231.395 32.4658 231.395C32.0876 231.395 31.7298 231.376 31.3926 231.34C31.0553 231.303 30.7454 231.251 30.4629 231.183C30.1803 231.114 29.932 231.03 29.7178 230.93V229.815C30.0596 229.957 30.4766 230.089 30.9688 230.212C31.4609 230.33 31.9759 230.39 32.5137 230.39C33.015 230.39 33.4388 230.324 33.7852 230.191C34.1315 230.055 34.3936 229.861 34.5713 229.61C34.7536 229.355 34.8447 229.05 34.8447 228.694C34.8447 228.353 34.7695 228.068 34.6191 227.84C34.4688 227.607 34.2181 227.398 33.8672 227.211C33.5208 227.02 33.0469 226.817 32.4453 226.603C32.0215 226.452 31.6478 226.288 31.3242 226.11C31.0007 225.928 30.7295 225.723 30.5107 225.495C30.292 225.267 30.1257 225.003 30.0117 224.702C29.9023 224.401 29.8477 224.057 29.8477 223.67C29.8477 223.137 29.9821 222.681 30.251 222.303C30.5244 221.92 30.9004 221.628 31.3789 221.428C31.862 221.223 32.4157 221.12 33.04 221.12C33.5732 221.12 34.0654 221.17 34.5166 221.271C34.9723 221.371 35.3893 221.505 35.7676 221.674L35.4053 222.672C35.0452 222.522 34.6624 222.396 34.2568 222.296C33.8558 222.196 33.4411 222.146 33.0127 222.146C32.5843 222.146 32.222 222.209 31.9258 222.337C31.6341 222.46 31.4108 222.635 31.2559 222.863C31.1009 223.091 31.0234 223.362 31.0234 223.677C31.0234 224.028 31.0964 224.319 31.2422 224.552C31.3926 224.784 31.6296 224.992 31.9531 225.174C32.2812 225.352 32.7142 225.538 33.252 225.734C33.8398 225.949 34.3389 226.176 34.749 226.418C35.1592 226.655 35.4714 226.947 35.6855 227.293C35.8997 227.635 36.0068 228.07 36.0068 228.599ZM39.1896 223.766V231.258H38.0549V223.766H39.1896ZM38.6359 220.963C38.8228 220.963 38.9823 221.024 39.1145 221.148C39.2512 221.266 39.3195 221.453 39.3195 221.708C39.3195 221.959 39.2512 222.146 39.1145 222.269C38.9823 222.392 38.8228 222.453 38.6359 222.453C38.44 222.453 38.2759 222.392 38.1438 222.269C38.0161 222.146 37.9523 221.959 37.9523 221.708C37.9523 221.453 38.0161 221.266 38.1438 221.148C38.2759 221.024 38.44 220.963 38.6359 220.963ZM43.8627 234.621C42.8783 234.621 42.1195 234.437 41.5863 234.067C41.0531 233.703 40.7865 233.19 40.7865 232.529C40.7865 232.06 40.9346 231.659 41.2309 231.326C41.5316 230.994 41.9464 230.773 42.475 230.663C42.279 230.572 42.1104 230.435 41.9691 230.253C41.8324 230.071 41.7641 229.861 41.7641 229.624C41.7641 229.351 41.8393 229.111 41.9896 228.906C42.1446 228.697 42.3793 228.496 42.6938 228.305C42.3018 228.145 41.9828 227.876 41.7367 227.498C41.4952 227.115 41.3744 226.671 41.3744 226.165C41.3744 225.627 41.4861 225.169 41.7094 224.791C41.9327 224.408 42.2563 224.117 42.6801 223.916C43.1039 223.716 43.6166 223.615 44.2182 223.615C44.3503 223.615 44.4825 223.622 44.6146 223.636C44.7514 223.645 44.8813 223.661 45.0043 223.684C45.1273 223.702 45.2344 223.725 45.3256 223.752H47.8959V224.483L46.515 224.654C46.6518 224.832 46.7657 225.046 46.8568 225.297C46.948 225.548 46.9936 225.826 46.9936 226.131C46.9936 226.878 46.7406 227.473 46.2348 227.915C45.7289 228.353 45.0339 228.571 44.1498 228.571C43.9402 228.571 43.726 228.553 43.5072 228.517C43.2839 228.64 43.113 228.776 42.9945 228.927C42.8806 229.077 42.8236 229.25 42.8236 229.446C42.8236 229.592 42.8669 229.708 42.9535 229.795C43.0447 229.882 43.1745 229.945 43.3432 229.986C43.5118 230.023 43.7146 230.041 43.9516 230.041H45.2709C46.0867 230.041 46.711 230.212 47.1439 230.554C47.5814 230.896 47.8002 231.395 47.8002 232.051C47.8002 232.88 47.463 233.516 46.7885 233.958C46.114 234.4 45.1387 234.621 43.8627 234.621ZM43.8969 233.732C44.5167 233.732 45.0294 233.669 45.435 233.541C45.8451 233.418 46.1505 233.238 46.351 233.001C46.5561 232.769 46.6586 232.491 46.6586 232.167C46.6586 231.866 46.5902 231.638 46.4535 231.483C46.3168 231.333 46.1163 231.233 45.852 231.183C45.5876 231.128 45.2641 231.101 44.8813 231.101H43.5824C43.2452 231.101 42.9512 231.153 42.7006 231.258C42.4499 231.363 42.2563 231.518 42.1195 231.723C41.9874 231.928 41.9213 232.183 41.9213 232.488C41.9213 232.894 42.0922 233.202 42.434 233.411C42.7758 233.625 43.2634 233.732 43.8969 233.732ZM44.1908 227.744C44.7331 227.744 45.141 227.607 45.4145 227.334C45.6879 227.061 45.8246 226.662 45.8246 226.138C45.8246 225.577 45.6856 225.158 45.4076 224.88C45.1296 224.597 44.7195 224.456 44.1771 224.456C43.6576 224.456 43.2566 224.602 42.974 224.894C42.696 225.181 42.557 225.602 42.557 226.158C42.557 226.669 42.6983 227.061 42.9809 227.334C43.2634 227.607 43.6667 227.744 44.1908 227.744ZM53.0953 223.629C53.984 223.629 54.6562 223.848 55.1119 224.285C55.5676 224.718 55.7955 225.415 55.7955 226.377V231.258H54.6744V226.452C54.6744 225.828 54.5309 225.361 54.2437 225.051C53.9612 224.741 53.526 224.586 52.9381 224.586C52.1087 224.586 51.5253 224.821 51.1881 225.29C50.8508 225.76 50.6822 226.441 50.6822 227.334V231.258H49.5475V223.766H50.4635L50.6344 224.846H50.6959C50.8554 224.581 51.0582 224.36 51.3043 224.183C51.5504 224 51.8261 223.864 52.1314 223.773C52.4368 223.677 52.7581 223.629 53.0953 223.629ZM63.2549 223.766V231.258H62.1201V223.766H63.2549ZM62.7012 220.963C62.888 220.963 63.0475 221.024 63.1797 221.148C63.3164 221.266 63.3848 221.453 63.3848 221.708C63.3848 221.959 63.3164 222.146 63.1797 222.269C63.0475 222.392 62.888 222.453 62.7012 222.453C62.5052 222.453 62.3411 222.392 62.209 222.269C62.0814 222.146 62.0176 221.959 62.0176 221.708C62.0176 221.453 62.0814 221.266 62.209 221.148C62.3411 221.024 62.5052 220.963 62.7012 220.963ZM69.384 223.629C70.2727 223.629 70.9449 223.848 71.4006 224.285C71.8563 224.718 72.0842 225.415 72.0842 226.377V231.258H70.9631V226.452C70.9631 225.828 70.8195 225.361 70.5324 225.051C70.2499 224.741 69.8146 224.586 69.2268 224.586C68.3973 224.586 67.814 224.821 67.4768 225.29C67.1395 225.76 66.9709 226.441 66.9709 227.334V231.258H65.8361V223.766H66.7521L66.923 224.846H66.9846C67.1441 224.581 67.3469 224.36 67.593 224.183C67.8391 224 68.1148 223.864 68.4201 223.773C68.7255 223.677 69.0467 223.629 69.384 223.629ZM80.8287 230.465C81.0156 230.465 81.207 230.449 81.4029 230.417C81.5989 230.385 81.7584 230.346 81.8814 230.301V231.183C81.7493 231.242 81.5647 231.292 81.3277 231.333C81.0953 231.374 80.8674 231.395 80.6441 231.395C80.2477 231.395 79.8876 231.326 79.5641 231.19C79.2405 231.048 78.9807 230.811 78.7848 230.479C78.5934 230.146 78.4977 229.686 78.4977 229.098V224.654H77.4313V224.101L78.5045 223.656L78.9557 222.029H79.6393V223.766H81.8336V224.654H79.6393V229.064C79.6393 229.533 79.7464 229.884 79.9605 230.116C80.1793 230.349 80.4687 230.465 80.8287 230.465ZM90.034 227.498C90.034 228.113 89.9542 228.662 89.7947 229.146C89.6352 229.629 89.4051 230.037 89.1043 230.369C88.8035 230.702 88.4389 230.957 88.0105 231.135C87.5867 231.308 87.1059 231.395 86.5682 231.395C86.0669 231.395 85.6066 231.308 85.1873 231.135C84.7726 230.957 84.4126 230.702 84.1072 230.369C83.8064 230.037 83.5717 229.629 83.4031 229.146C83.2391 228.662 83.157 228.113 83.157 227.498C83.157 226.678 83.296 225.981 83.574 225.406C83.852 224.828 84.2485 224.388 84.7635 224.087C85.283 223.782 85.9005 223.629 86.616 223.629C87.2996 223.629 87.8966 223.782 88.407 224.087C88.922 224.392 89.3208 224.834 89.6033 225.413C89.8904 225.987 90.034 226.682 90.034 227.498ZM84.3328 227.498C84.3328 228.1 84.4126 228.621 84.5721 229.064C84.7316 229.506 84.9777 229.847 85.3104 230.089C85.643 230.33 86.0714 230.451 86.5955 230.451C87.115 230.451 87.5411 230.33 87.8738 230.089C88.2111 229.847 88.4594 229.506 88.6189 229.064C88.7785 228.621 88.8582 228.1 88.8582 227.498C88.8582 226.901 88.7785 226.386 88.6189 225.953C88.4594 225.516 88.2133 225.178 87.8807 224.941C87.548 224.704 87.1173 224.586 86.5887 224.586C85.8094 224.586 85.2374 224.843 84.8729 225.358C84.5128 225.873 84.3328 226.587 84.3328 227.498ZM94.8 223.766H96.0168L97.6711 228.113C97.7668 228.369 97.8557 228.615 97.9377 228.852C98.0197 229.084 98.0926 229.307 98.1564 229.522C98.2203 229.736 98.2704 229.943 98.3068 230.144H98.3547C98.4185 229.916 98.5096 229.617 98.6281 229.248C98.7466 228.874 98.8742 228.494 99.0109 228.107L100.576 223.766H101.8L98.5393 232.358C98.3661 232.819 98.1633 233.22 97.9309 233.562C97.703 233.903 97.425 234.165 97.0969 234.348C96.7688 234.535 96.3723 234.628 95.9074 234.628C95.6932 234.628 95.5041 234.614 95.34 234.587C95.176 234.564 95.0347 234.537 94.9162 234.505V233.596C95.0165 233.619 95.1372 233.639 95.2785 233.657C95.4244 233.676 95.5747 233.685 95.7297 233.685C96.0122 233.685 96.2561 233.63 96.4611 233.521C96.6708 233.416 96.8508 233.261 97.0012 233.056C97.1516 232.851 97.2814 232.607 97.3908 232.324L97.801 231.272L94.8 223.766ZM109.631 227.498C109.631 228.113 109.551 228.662 109.392 229.146C109.232 229.629 109.002 230.037 108.702 230.369C108.401 230.702 108.036 230.957 107.608 231.135C107.184 231.308 106.703 231.395 106.165 231.395C105.664 231.395 105.204 231.308 104.785 231.135C104.37 230.957 104.01 230.702 103.704 230.369C103.404 230.037 103.169 229.629 103 229.146C102.836 228.662 102.754 228.113 102.754 227.498C102.754 226.678 102.893 225.981 103.171 225.406C103.449 224.828 103.846 224.388 104.361 224.087C104.88 223.782 105.498 223.629 106.213 223.629C106.897 223.629 107.494 223.782 108.004 224.087C108.519 224.392 108.918 224.834 109.201 225.413C109.488 225.987 109.631 226.682 109.631 227.498ZM103.93 227.498C103.93 228.1 104.01 228.621 104.169 229.064C104.329 229.506 104.575 229.847 104.908 230.089C105.24 230.33 105.669 230.451 106.193 230.451C106.712 230.451 107.138 230.33 107.471 230.089C107.808 229.847 108.057 229.506 108.216 229.064C108.376 228.621 108.455 228.1 108.455 227.498C108.455 226.901 108.376 226.386 108.216 225.953C108.057 225.516 107.811 225.178 107.478 224.941C107.145 224.704 106.715 224.586 106.186 224.586C105.407 224.586 104.835 224.843 104.47 225.358C104.11 225.873 103.93 226.587 103.93 227.498ZM117.955 223.766V231.258H117.025L116.861 230.205H116.799C116.644 230.465 116.444 230.684 116.198 230.861C115.952 231.039 115.674 231.171 115.364 231.258C115.059 231.349 114.733 231.395 114.386 231.395C113.794 231.395 113.297 231.299 112.896 231.107C112.495 230.916 112.192 230.62 111.987 230.219C111.786 229.818 111.686 229.303 111.686 228.674V223.766H112.835V228.592C112.835 229.216 112.976 229.683 113.258 229.993C113.541 230.299 113.972 230.451 114.55 230.451C115.106 230.451 115.548 230.346 115.877 230.137C116.209 229.927 116.449 229.62 116.594 229.214C116.74 228.804 116.813 228.302 116.813 227.71V223.766H117.955ZM123.933 223.629C124.084 223.629 124.241 223.638 124.405 223.656C124.569 223.67 124.715 223.69 124.843 223.718L124.699 224.771C124.576 224.739 124.439 224.714 124.289 224.695C124.138 224.677 123.997 224.668 123.865 224.668C123.564 224.668 123.279 224.73 123.011 224.853C122.746 224.971 122.514 225.144 122.313 225.372C122.113 225.595 121.956 225.867 121.842 226.186C121.728 226.5 121.671 226.851 121.671 227.238V231.258H120.529V223.766H121.472L121.596 225.147H121.643C121.798 224.869 121.985 224.616 122.204 224.388C122.423 224.155 122.676 223.971 122.963 223.834C123.254 223.697 123.578 223.629 123.933 223.629ZM133.047 223.643C133.94 223.643 134.603 223.843 135.036 224.244C135.469 224.645 135.686 225.286 135.686 226.165V231.258H134.859L134.64 230.15H134.585C134.376 230.424 134.157 230.654 133.929 230.841C133.701 231.023 133.437 231.162 133.136 231.258C132.84 231.349 132.475 231.395 132.042 231.395C131.586 231.395 131.181 231.315 130.825 231.155C130.474 230.996 130.196 230.754 129.991 230.431C129.791 230.107 129.691 229.697 129.691 229.2C129.691 228.453 129.987 227.879 130.579 227.478C131.172 227.077 132.074 226.858 133.286 226.821L134.578 226.767V226.309C134.578 225.662 134.439 225.208 134.161 224.948C133.883 224.689 133.491 224.559 132.986 224.559C132.594 224.559 132.22 224.616 131.864 224.73C131.509 224.843 131.172 224.978 130.853 225.133L130.504 224.272C130.841 224.098 131.229 223.95 131.666 223.827C132.104 223.704 132.564 223.643 133.047 223.643ZM134.565 227.566L133.423 227.614C132.489 227.651 131.83 227.803 131.447 228.072C131.065 228.341 130.873 228.722 130.873 229.214C130.873 229.642 131.003 229.959 131.263 230.164C131.523 230.369 131.867 230.472 132.295 230.472C132.96 230.472 133.505 230.287 133.929 229.918C134.353 229.549 134.565 228.995 134.565 228.257V227.566ZM141.2 231.395C140.525 231.395 139.93 231.256 139.415 230.978C138.9 230.7 138.499 230.276 138.212 229.706C137.925 229.136 137.782 228.419 137.782 227.553C137.782 226.646 137.932 225.905 138.233 225.331C138.538 224.752 138.957 224.324 139.491 224.046C140.024 223.768 140.63 223.629 141.309 223.629C141.683 223.629 142.043 223.668 142.389 223.745C142.74 223.818 143.027 223.912 143.25 224.025L142.909 224.976C142.681 224.885 142.416 224.802 142.116 224.73C141.819 224.657 141.541 224.62 141.282 224.62C140.762 224.62 140.329 224.732 139.983 224.955C139.641 225.178 139.384 225.507 139.21 225.94C139.042 226.372 138.957 226.906 138.957 227.539C138.957 228.145 139.039 228.662 139.204 229.091C139.372 229.519 139.621 229.847 139.949 230.075C140.281 230.299 140.696 230.41 141.193 230.41C141.589 230.41 141.947 230.369 142.266 230.287C142.585 230.201 142.874 230.1 143.134 229.986V230.998C142.884 231.126 142.603 231.224 142.293 231.292C141.988 231.36 141.623 231.395 141.2 231.395ZM148.088 231.395C147.413 231.395 146.818 231.256 146.303 230.978C145.788 230.7 145.387 230.276 145.1 229.706C144.813 229.136 144.67 228.419 144.67 227.553C144.67 226.646 144.82 225.905 145.121 225.331C145.426 224.752 145.845 224.324 146.379 224.046C146.912 223.768 147.518 223.629 148.197 223.629C148.571 223.629 148.931 223.668 149.277 223.745C149.628 223.818 149.915 223.912 150.138 224.025L149.796 224.976C149.569 224.885 149.304 224.802 149.004 224.73C148.707 224.657 148.429 224.62 148.17 224.62C147.65 224.62 147.217 224.732 146.871 224.955C146.529 225.178 146.271 225.507 146.098 225.94C145.93 226.372 145.845 226.906 145.845 227.539C145.845 228.145 145.927 228.662 146.091 229.091C146.26 229.519 146.508 229.847 146.837 230.075C147.169 230.299 147.584 230.41 148.081 230.41C148.477 230.41 148.835 230.369 149.154 230.287C149.473 230.201 149.762 230.1 150.022 229.986V230.998C149.771 231.126 149.491 231.224 149.181 231.292C148.876 231.36 148.511 231.395 148.088 231.395ZM158.434 227.498C158.434 228.113 158.355 228.662 158.195 229.146C158.036 229.629 157.805 230.037 157.505 230.369C157.204 230.702 156.839 230.957 156.411 231.135C155.987 231.308 155.506 231.395 154.969 231.395C154.467 231.395 154.007 231.308 153.588 231.135C153.173 230.957 152.813 230.702 152.508 230.369C152.207 230.037 151.972 229.629 151.804 229.146C151.639 228.662 151.557 228.113 151.557 227.498C151.557 226.678 151.696 225.981 151.974 225.406C152.252 224.828 152.649 224.388 153.164 224.087C153.683 223.782 154.301 223.629 155.016 223.629C155.7 223.629 156.297 223.782 156.807 224.087C157.322 224.392 157.721 224.834 158.004 225.413C158.291 225.987 158.434 226.682 158.434 227.498ZM152.733 227.498C152.733 228.1 152.813 228.621 152.972 229.064C153.132 229.506 153.378 229.847 153.711 230.089C154.043 230.33 154.472 230.451 154.996 230.451C155.515 230.451 155.942 230.33 156.274 230.089C156.611 229.847 156.86 229.506 157.019 229.064C157.179 228.621 157.259 228.1 157.259 227.498C157.259 226.901 157.179 226.386 157.019 225.953C156.86 225.516 156.614 225.178 156.281 224.941C155.948 224.704 155.518 224.586 154.989 224.586C154.21 224.586 153.638 224.843 153.273 225.358C152.913 225.873 152.733 226.587 152.733 227.498ZM166.758 223.766V231.258H165.828L165.664 230.205H165.603C165.448 230.465 165.247 230.684 165.001 230.861C164.755 231.039 164.477 231.171 164.167 231.258C163.862 231.349 163.536 231.395 163.189 231.395C162.597 231.395 162.1 231.299 161.699 231.107C161.298 230.916 160.995 230.62 160.79 230.219C160.59 229.818 160.489 229.303 160.489 228.674V223.766H161.638V228.592C161.638 229.216 161.779 229.683 162.062 229.993C162.344 230.299 162.775 230.451 163.354 230.451C163.91 230.451 164.352 230.346 164.68 230.137C165.012 229.927 165.252 229.62 165.397 229.214C165.543 228.804 165.616 228.302 165.616 227.71V223.766H166.758ZM172.88 223.629C173.769 223.629 174.441 223.848 174.897 224.285C175.352 224.718 175.58 225.415 175.58 226.377V231.258H174.459V226.452C174.459 225.828 174.316 225.361 174.029 225.051C173.746 224.741 173.311 224.586 172.723 224.586C171.893 224.586 171.31 224.821 170.973 225.29C170.636 225.76 170.467 226.441 170.467 227.334V231.258H169.332V223.766H170.248L170.419 224.846H170.481C170.64 224.581 170.843 224.36 171.089 224.183C171.335 224 171.611 223.864 171.916 223.773C172.222 223.677 172.543 223.629 172.88 223.629ZM180.513 230.465C180.7 230.465 180.891 230.449 181.087 230.417C181.283 230.385 181.443 230.346 181.566 230.301V231.183C181.434 231.242 181.249 231.292 181.012 231.333C180.78 231.374 180.552 231.395 180.329 231.395C179.932 231.395 179.572 231.326 179.248 231.19C178.925 231.048 178.665 230.811 178.469 230.479C178.278 230.146 178.182 229.686 178.182 229.098V224.654H177.116V224.101L178.189 223.656L178.64 222.029H179.324V223.766H181.518V224.654H179.324V229.064C179.324 229.533 179.431 229.884 179.645 230.116C179.864 230.349 180.153 230.465 180.513 230.465Z" fill="white"/>
</svg>
